<svg xmlns="http://www.w3.org/2000/svg" id="Ebene_2" viewBox="0 0 263.5 35.99"><rect x="0" y="0" width="233.86" height="35.99" fill="#fff"></rect><path d="m125.1,18.44c0,2.45-1.93,4.44-4.31,4.44s-4.31-1.99-4.31-4.44,1.93-4.44,4.31-4.44,4.31,1.99,4.31,4.44Zm-55.11-4.43c-2.4,0-4.35,2.02-4.35,4.5s1.95,4.5,4.35,4.5,4.35-2.02,4.35-4.5-1.95-4.5-4.35-4.5Zm78.47-.02c-2.38,0-4.31,2.02-4.31,4.52s1.93,4.52,4.31,4.52,4.31-2.02,4.31-4.52-1.93-4.52-4.31-4.52ZM163.05,0h100.45s0,35.99,0,35.99H0V0h45.5s0,26.47,0,26.47h3.62v-9.38c.16-1.58,1.4-2.97,3.12-2.97s3.12,1.33,3.12,2.97v9.38s3.51,0,3.51,0v-10.9c-.39-3.04-2.54-5.23-5.65-5.23-1.61,0-3.07.6-4.11,1.61V0h110.31s0,26.43,0,26.43h3.62v-9.38c.16-1.58,1.4-2.97,3.12-2.97s3.12,1.33,3.12,2.97v9.38h3.51v-10.9c-.4-3.04-2.55-5.23-5.65-5.23-1.61,0-3.07.6-4.1,1.61V0Zm-85.16,26.35v-15.68s-3.54,0-3.54,0v1.65c-1.38-1.21-2.46-1.95-4.41-1.95-4.34,0-7.97,3.67-7.97,8.16s3.63,8.15,7.97,8.15c1.93,0,3.02-.67,4.39-1.86v1.53s3.56,0,3.56,0Zm17.4,0l-.02-10.41c-.07-3.11-2.71-5.61-5.95-5.61-1.7,0-3.23.68-4.31,1.78v-1.44s-3.38,0-3.38,0v15.68s3.63,0,3.63,0l.02-9.21c0-1.66,1.44-3,3.23-3s3.23,1.34,3.23,3v9.21s3.57,0,3.57,0Zm15.27-5.09c0-2.49-1.81-3.85-4.34-4.31l-2.4-.51c-1.03-.16-2.3-.47-2.3-1.54,0-.78,1.02-1.4,2.29-1.4s2.48.98,2.48,1.76h3.97c-.43-2.76-3.1-4.85-6.34-4.85-3.53,0-6.05,2.21-5.96,5.35.07,2.25,2.48,3.56,5.14,4.12l.87.17c1.87.26,2.92.65,2.97,1.57.06,1.12-.97,1.84-2.49,1.84-1.63,0-2.93-1.05-2.93-2.29h-3.79c.05,3.08,3.21,5.56,6.73,5.56s6.09-2.36,6.09-5.48Zm17.99-10.59h-3.29v1.56c-1.12-1.21-2.71-1.92-4.7-1.92-4.16,0-7.68,3.83-7.68,8,0,4.42,3.44,8,7.68,8,1.77,0,3.47-1,4.74-2.41,0,0,0,.19,0,.29,0,2.68-2.16,4.86-4.82,4.86-1.44,0-2.74-.64-3.62-1.65l-3.78.02c1,2.86,3.98,4.93,7.51,4.93,4.02,0,7.96-3.77,7.96-7.02v-.16s.01-14.51.01-14.51Zm11.29,3.11v-3.46c-1.8,0-3.32.71-3.98,1.71v-1.35h-3.41v15.68h3.71v-9.79c.08-1.5,1.68-2.71,3.68-2.78Zm16.53,4.72c0-4.5-3.53-8.15-7.88-8.15s-7.88,3.65-7.88,8.15,3.53,8.15,7.88,8.15,7.88-3.65,7.88-8.15Zm19.4,0c0,4.51,3.49,8.16,7.78,8.16,3.31,0,6.14-2.16,7.27-5.21h-3.85c-.78,1.01-2.03,1.67-3.43,1.67-2.04,0-3.75-1.34-4.18-3.19h11.93c.08-.47.05-.94.05-1.43,0-4.51-3.48-8.16-7.78-8.16s-7.78,3.65-7.78,8.16Zm7.84-4.65c-1.89,0-3.49,1.21-4.02,2.78h8.05c-.51-1.61-2.12-2.78-4.04-2.78Z" fill="#009d82" fill-rule="evenodd"></path></svg>