<svg xmlns="http://www.w3.org/2000/svg" xmlns:xlink="http://www.w3.org/1999/xlink" id="Ebene_1" x="0px" y="0px" viewBox="0 0 1293 582" style="enable-background:new 0 0 1293 582;" xml:space="preserve"><style type="text/css">	.st0{fill:#2D2A26;}</style><path class="st0" d="M62.3,200.1c-5.5,0-10.9-0.3-16.4-0.9c-4.6-0.5-9.1-1.4-13.5-2.7c-4.2-1.2-8.2-2.7-12.1-4.6v-27.4 c5.5,4.4,11.8,7.8,18.5,9.9c6.3,2.2,12.9,3.3,19.5,3.4c5.4,0,9.6-1,12.5-3.1c2.9-2.1,4.4-5.2,4.3-9.5c0.1-3.1-1.4-6-4-7.7 c-3.2-2.2-6.8-4-10.6-5.2c-4.4-1.5-9.3-3.2-14.8-5.1c-3.5-1.1-6.9-2.5-10.1-4.1c-3.3-1.6-6.3-3.7-8.9-6.3c-2.7-2.7-4.8-5.8-6.2-9.3 c-1.7-4.3-2.4-8.9-2.3-13.5c0-4.8,0.9-9.5,2.7-14c1.8-4.6,4.7-8.8,8.3-12.2c4.1-3.8,9-6.7,14.3-8.4c6.6-2.2,13.5-3.2,20.4-3.1 c4.3,0,8.6,0.3,12.9,0.9c3.6,0.6,7.2,1.4,10.8,2.6c3.6,1.2,7.1,2.6,10.5,4.3V112c-2.9-2.3-5.9-4.5-9.1-6.3 c-3.4-1.9-6.9-3.6-10.6-4.9c-3.7-1.3-7.6-2-11.6-2.1c-3.3-0.1-6.6,0.2-9.8,1.1c-2.6,0.6-5,2-6.9,4c-1.7,1.9-2.6,4.4-2.5,7 c-0.2,2.9,0.9,5.8,3,7.8c2.4,2.1,5.3,3.7,8.3,4.7c3.6,1.2,7.5,2.6,11.9,4c4.6,1.3,9.1,2.9,13.5,4.7c3.9,1.6,7.5,3.8,10.8,6.5 c3.1,2.6,5.5,5.9,7.1,9.6c1.8,4.3,2.6,9,2.5,13.7c0.1,6.8-1.7,13.5-5,19.5c-3.4,5.9-8.4,10.7-14.4,13.9 C79.1,198.5,71.4,200.1,62.3,200.1z"></path><path class="st0" d="M149.9,197.7v-96.3h-33.2V79.1h95.8v22.2h-33.8v96.3H149.9z"></path><path class="st0" d="M208.3,197.7l44.8-118.5h31.5l41.9,118.5H297L259.2,85.9l14-1.2l-37.7,113L208.3,197.7z M233.6,172.1l5.9-21.1 h53.9l2.7,21.1H233.6z"></path><path class="st0" d="M341.5,197.7V79.1h57.8c13.4,0,23.9,3.1,31.5,9.3s11.4,15.7,11.3,28.3c0,5.3-1.1,10.5-3.2,15.4 c-2.1,5-5.3,9.4-9.4,13c-4.5,3.7-9.9,6.2-15.6,7l-1.7-9.8l36.1,55.3h-36.6L381.8,146l12.8,10.8h-24.3v40.9L341.5,197.7z  M370.2,135.7h24.2c5.1,0,9.1-1.4,12.1-4.1c3-2.7,4.4-7.2,4.4-13.5c0-5.4-1.3-9.6-4-12.4c-2.7-2.8-6.4-4.3-11.3-4.3h-25.4 L370.2,135.7z"></path><path class="st0" d="M489.7,197.7v-96.3h-33.2V79.1h95.8v22.2h-33.8v96.3H489.7z"></path><path class="st0" d="M570.5,152.3V134h54.2v18.3L570.5,152.3z"></path><path class="st0" d="M706.1,201.4c-18.2,0-31.9-3.9-41-11.6s-13.6-19.9-13.6-36.3V79.1h30v73c0,9.1,1.8,15.9,5.5,20.3 c3.7,4.4,9.6,6.6,17.7,6.6c7.3,0,13-2.2,17.2-6.6c4.1-4.4,6.2-11.1,6.2-20.3v-73h27.4v74.3c0,11-2.1,20.1-6.3,27.1 c-4,6.9-10.1,12.4-17.3,15.7C724.4,199.7,715.8,201.4,706.1,201.4z"></path><path class="st0" d="M809.4,158.7v38.9h-28.8V79.1h53.3c13.9,0,24.8,3.1,32.7,9.4c7.9,6.3,11.9,16,11.9,29.1 c0,13.2-4,23.3-11.9,30.4c-7.9,7.1-18.8,10.7-32.7,10.7L809.4,158.7z M809.4,136.5h21c2.7,0.1,5.4-0.4,7.9-1.2 c2-0.7,3.8-1.9,5.2-3.6c1.3-1.6,2.3-3.4,2.9-5.4c0.7-2.2,1-4.4,1-6.7c0-2.5-0.3-5-1-7.5c-0.6-2.1-1.6-4-2.9-5.7 c-1.4-1.7-3.2-3-5.2-3.7c-2.5-0.9-5.2-1.3-7.9-1.2h-21V136.5z"></path><path class="st0" d="M72.9,365.5c-18.2,0-32-5.1-41.1-15.3C22.6,340,18,324.9,18,304.7c0-20.1,4.6-35.3,13.8-45.5 C41,249.1,54.7,244,72.9,244c6.2,0,12.4,0.8,18.5,2.3c6.1,1.6,11.9,3.7,17.6,6.4V265c-5.3-2.9-11-5.1-16.9-6.7 c-5.8-1.5-11.8-2.3-17.8-2.3c-10,0-18.1,1.7-24.4,5.2c-6.4,3.5-11.3,9.1-14,15.9c-3,7.2-4.5,16.4-4.5,27.6s1.5,20.5,4.5,27.6 c2.7,6.8,7.6,12.4,14,15.9c6.3,3.4,14.5,5.2,24.4,5.2c6,0,12-0.7,17.8-2.1c5.9-1.4,11.6-3.6,16.9-6.5V357c-3.8,1.8-7.7,3.3-11.6,4.6 c-3.9,1.3-8,2.3-12.1,2.9C81.2,365.2,77.1,365.5,72.9,365.5z"></path><path class="st0" d="M133.9,364.1V245.6h74.8v12.1h-62v40.9h54.6V311h-54.6v41h62v12.1L133.9,364.1z"></path><path class="st0" d="M237.1,364.1V245.6h14.6l73.9,104.3l-3.2,5V245.6h12.8v118.5h-14.4l-76.8-108.2l5.9-5.5v113.7H237.1z"></path><path class="st0" d="M395.8,364.1V257.6h-41.9v-12.1h96.5v12.1h-41.8v106.5H395.8z"></path><path class="st0" d="M469,364.1V245.6h74.8v12.1h-62v40.9h54.6V311h-54.6v41h62v12.1L469,364.1z"></path><path class="st0" d="M572.3,364.1V245.6H621c11.6,0,20.3,2.9,26.2,8.7c5.9,5.8,8.8,14.4,8.8,25.7c0.1,6.4-1.3,12.7-4.3,18.3 c-2.7,5.2-6.8,9.6-11.9,12.7c-5.5,3.2-11.7,4.8-18,4.6l5.4-3.6l34.1,52.1h-15.1L611,309.7l6.4,6.6h-32.3v47.8H572.3z M585.1,304.2 h30c9.8,0,17-2,21.4-6c4.4-4,6.7-9.7,6.7-17.3c0-7.1-1.7-12.8-5-17c-3.3-4.2-9.6-6.3-18.7-6.3h-34.4L585.1,304.2z"></path><polygon class="st0" points="1003.8,395.3 1197.6,509.6 1277,146.7 "></polygon><polygon class="st0" points="997.9,409.8 962.4,509.6 1031.6,429.5 "></polygon><polygon class="st0" points="921.8,363.8 946,509.7 989.3,387.7 1188.8,207.3 "></polygon><polygon class="st0" points="1245.3,156.5 902.1,357.6 747.1,309.6 "></polygon></svg>