<svg xmlns="http://www.w3.org/2000/svg" id="Ebene_2" viewBox="0 0 255.45 62.21"><g id="Ebene_1-2"><path d="m23,58.17c7.17-.06,17.69-.85,18.78-8.05.75-4.97-10.86-10.92-21.8-16.46h-.04C10.47,28.89,3.92,25.41,0,22.47v39.44h56.69v-6.35c-6.29,3.68-19.54,4.75-33.69,2.61Z" fill="#d21034"></path><path d="m33.01,8.44c-7.17.06-17.69.85-18.77,8.05-.76,4.97,10.85,10.92,21.8,16.46,10.05,5.05,16.82,8.67,20.66,11.72V5.22H0v5.45c6.53-3.37,19.35-4.29,33.01-2.23Z" fill="#d21034"></path><path d="m14.24,16.49c1.08-7.2,11.6-7.99,18.77-8.05C19.35,6.37,6.53,7.29,0,10.67v11.8c3.92,2.94,10.47,6.42,19.94,11.18h.04c10.94,5.54,22.55,11.49,21.8,16.46-1.09,7.2-11.61,8-18.78,8.05,14.16,2.14,27.4,1.07,33.69-2.61v-10.89c-3.83-3.05-10.61-6.67-20.66-11.72-10.95-5.54-22.56-11.49-21.8-16.46Z" fill="#fff"></path><polygon points="133.8 5.26 119.32 44.5 108.59 44.49 99.98 18.42 91.43 44.5 80.18 44.5 67.58 5.26 79.51 5.26 87.16 32.04 96.54 5.26 107.46 5.26 116.01 32.04 125.39 5.26 133.8 5.26 133.8 5.26" fill="#00267f"></polygon><polygon points="137.01 16.48 147.58 16.48 147.58 44.61 137.01 44.61 137.01 16.48 137.01 16.48" fill="#00267f"></polygon><polygon points="137.01 0 147.58 0 147.58 10.96 137.01 10.96 137.01 0 137.01 0" fill="#d21034"></polygon><polygon points="173.7 12.28 173.7 44.64 163.12 44.64 163.13 12.3 151.09 12.3 152.85 5.35 185.75 5.35 184.03 12.3 173.7 12.28 173.7 12.28" fill="#00267f"></polygon><polygon points="210.02 12.28 210.02 44.64 199.45 44.64 199.45 12.3 187.4 12.3 189.17 5.35 222.07 5.35 220.36 12.3 210.02 12.28 210.02 12.28" fill="#00267f"></polygon><polygon points="236.47 28.46 236.47 37.69 255.45 37.69 253.65 44.64 225.87 44.64 225.87 5.35 255.45 5.35 253.7 12.3 236.48 12.3 236.48 21.52 252.07 21.52 250.38 28.47 236.47 28.46 236.47 28.46" fill="#00267f"></polygon><path d="m107.92,50.51v8.49c0,.66,0,1.35-2.52,1.35h-6.17c-2.52,0-2.52-.72-2.52-1.35v-8.49h-2.44v8.51c0,2.66,1.92,3.19,5.01,3.19h6.06c3.09,0,5.01-.53,5.01-3.19v-8.51h-2.44Z" fill="#00267f"></path><path d="m113.02,50.51v1.87h6.64v9.71h2.44v-9.71h6.64v-1.87h-15.71Z" fill="#00267f"></path><path d="m170.58,50.51s-7.05,8.41-7.52,8.97c-.47-.56-7.52-8.97-7.52-8.97h-3.25v11.58h2.43v-9.06c.95,1.13,7.55,9.06,7.55,9.06h1.58s6.6-7.92,7.55-9.06v9.06h2.43v-11.58h-3.26Z" fill="#00267f"></path><path d="m182.49,50.39c-3.56,0-5.01,1.28-5.01,4.42v2.99c0,3.14,1.45,4.42,5.01,4.42h7.56c3.56,0,5.01-1.28,5.01-4.42v-2.99c0-3.14-1.45-4.42-5.01-4.42h-7.56Zm-2.58,7.95v-4.1c0-.76.24-1.28.75-1.59.44-.27,1.1-.4,2.01-.4h7.2c.92,0,1.57.13,2.01.4.5.31.75.83.75,1.59v4.1c0,1.42-.8,2-2.76,2h-7.2c-1.96,0-2.76-.58-2.76-2Z" fill="#00267f"></path><path d="m197.38,50.51v1.87h6.64v9.71h2.44v-9.71h6.64v-1.87h-15.71Z" fill="#00267f"></path><path d="m215.81,50.51v11.58h2.44v-11.58h-2.44Z" fill="#00267f"></path><path d="m235.92,50.51s-5.69,8.58-6.19,9.33c-.5-.75-6.19-9.33-6.19-9.33h-2.78l7.71,11.58h2.53l7.71-11.58h-2.79Z" fill="#00267f"></path><path d="m241.16,50.51v11.58h13.63v-1.86h-11.2v-3.16h10.69v-1.87h-10.69v-2.82h11.12v-1.87h-13.56Z" fill="#00267f"></path><path d="m80.73,50.5l-7.71,11.58h2.79s5.69-8.57,6.19-9.33c.5.76,6.19,9.33,6.19,9.33h2.78l-7.71-11.58h-2.53Z" fill="#00267f"></path><path d="m136.06,50.39c-1.86,0-3.1.35-3.9,1.1-.76.71-1.11,1.76-1.11,3.32v2.99c0,3.14,1.45,4.42,5.01,4.42h7.56c3.56,0,5.01-1.28,5.01-4.42v-2.99c0-3.14-1.45-4.42-5.01-4.42h-7.56Zm-2.58,7.95v-4.1c0-.76.24-1.28.75-1.59.44-.27,1.1-.4,2.01-.4h7.2c.92,0,1.57.13,2.01.4.5.31.75.83.75,1.59v4.1c0,1.42-.8,2-2.76,2h-7.2c-1.96,0-2.76-.58-2.76-2Z" fill="#00267f"></path></g></svg>